<?xml version="1.0" encoding="UTF-8" standalone="no"?>
<!DOCTYPE svg PUBLIC "-//W3C//DTD SVG 1.0//EN" "http://www.w3.org/TR/2001/PR-SVG-20010719/DTD/svg10.dtd">
<svg width="44cm" height="43cm" viewBox="204 140 879 845" xmlns="http://www.w3.org/2000/svg" xmlns:xlink="http://www.w3.org/1999/xlink">
  <g>
    <line style="fill: none; fill-opacity:0; stroke-width: 1; stroke-dasharray: 8; stroke: #000000" x1="446.024" y1="177.621" x2="446.024" y2="255.219"/>
    <line style="fill: none; fill-opacity:0; stroke-width: 1; stroke-dasharray: 8; stroke: #000000" x1="446.024" y1="485.219" x2="446.024" y2="592.604"/>
    <rect style="fill: #ffffff" x="439.024" y="255.219" width="14" height="230"/>
    <rect style="fill: none; fill-opacity:0; stroke-width: 2; stroke: #000000" x="439.024" y="255.219" width="14" height="230"/>
  </g>
  <g>
    <rect style="fill: #ffffff" x="415" y="141.621" width="62.05" height="36"/>
    <rect style="fill: none; fill-opacity:0; stroke-width: 2; stroke: #000000" x="415" y="141.621" width="62.05" height="36"/>
    <text font-size="12.8" style="fill: #000000;text-anchor:middle;font-family:sans-serif;font-style:normal;font-weight:normal" x="446.025" y="163.521">
      <tspan x="446.025" y="163.521">Server</tspan>
    </text>
    <line style="fill: none; fill-opacity:0; stroke-width: 1; stroke: #000000" x1="425" y1="166.521" x2="467.05" y2="166.521"/>
  </g>
  <g>
    <line style="fill: none; fill-opacity:0; stroke-width: 1; stroke-dasharray: 8; stroke: #000000" x1="856.858" y1="177.621" x2="856.858" y2="405.858"/>
    <line style="fill: none; fill-opacity:0; stroke-width: 1; stroke-dasharray: 8; stroke: #000000" x1="856.858" y1="485.858" x2="856.858" y2="984.138"/>
    <rect style="fill: #ffffff" x="849.858" y="405.858" width="14" height="80"/>
    <rect style="fill: none; fill-opacity:0; stroke-width: 2; stroke: #000000" x="849.858" y="405.858" width="14" height="80"/>
  </g>
  <g>
    <rect style="fill: #ffffff" x="811.084" y="141.621" width="91.55" height="36"/>
    <rect style="fill: none; fill-opacity:0; stroke-width: 2; stroke: #000000" x="811.084" y="141.621" width="91.55" height="36"/>
    <text font-size="12.8" style="fill: #000000;text-anchor:middle;font-family:sans-serif;font-style:normal;font-weight:normal" x="856.859" y="163.521">
      <tspan x="856.859" y="163.521">Application</tspan>
    </text>
    <line style="fill: none; fill-opacity:0; stroke-width: 1; stroke: #000000" x1="821.084" y1="166.521" x2="892.634" y2="166.521"/>
  </g>
  <g>
    <line style="fill: none; fill-opacity:0; stroke-width: 2; stroke: #000000" x1="422.024" y1="255.194" x2="205.92" y2="254.894"/>
    <polygon style="fill: #000000" points="422.017,260.194 438.024,255.217 422.031,250.194 "/>
    <polygon style="fill: none; fill-opacity:0; stroke-width: 2; stroke: #000000" points="422.017,260.194 438.024,255.217 422.031,250.194 "/>
    <text font-size="12.7998" style="fill: #000000;text-anchor:middle;font-family:sans-serif;font-style:normal;font-weight:normal" x="322.472" y="265.056">client request</text>
  </g>
  <g>
    <line style="fill: none; fill-opacity:0; stroke-width: 2; stroke: #000000" x1="832.858" y1="405.831" x2="453.026" y2="405.218"/>
    <polygon style="fill: #000000" points="832.85,410.831 848.858,405.856 832.866,400.831 "/>
    <polygon style="fill: none; fill-opacity:0; stroke-width: 2; stroke: #000000" points="832.85,410.831 848.858,405.856 832.866,400.831 "/>
    <text font-size="12.7998" style="fill: #000000;text-anchor:middle;font-family:sans-serif;font-style:normal;font-weight:normal" x="651.442" y="415.538">handle (request, response)</text>
  </g>
  <g>
    <line style="fill: none; fill-opacity:0; stroke-width: 2; stroke-dasharray: 8; stroke: #000000" x1="470.026" y1="485.245" x2="849.858" y2="485.858"/>
    <polygon style="fill: #000000" points="470.034,480.245 454.026,485.22 470.018,490.245 "/>
    <polygon style="fill: none; fill-opacity:0; stroke-width: 2; stroke: #000000" points="470.034,480.245 454.026,485.22 470.018,490.245 "/>
  </g>
  <g>
    <line style="fill: none; fill-opacity:0; stroke-width: 2; stroke: #000000" x1="470.024" y1="516.947" x2="1032.39" y2="516.122"/>
    <polygon style="fill: #000000" points="470.017,511.947 454.024,516.97 470.031,521.947 "/>
    <polygon style="fill: none; fill-opacity:0; stroke-width: 2; stroke: #000000" points="470.017,511.947 454.024,516.97 470.031,521.947 "/>
    <text font-size="12.7998" style="fill: #000000;text-anchor:middle;font-family:sans-serif;font-style:normal;font-weight:normal" x="742.709" y="526.547">end (continuation)</text>
  </g>
  <g>
    <line style="fill: none; fill-opacity:0; stroke-width: 1; stroke-dasharray: 8; stroke: #000000" x1="643.1" y1="278.03" x2="643.1" y2="556.166"/>
    <line style="fill: none; fill-opacity:0; stroke-width: 1; stroke-dasharray: 8; stroke: #000000" x1="643.1" y1="616.166" x2="643.1" y2="788.659"/>
    <rect style="fill: #ffffff" x="636.1" y="556.166" width="14" height="60"/>
    <rect style="fill: none; fill-opacity:0; stroke-width: 2; stroke: #000000" x="636.1" y="556.166" width="14" height="60"/>
    <line style="fill: none; fill-opacity:0; stroke-width: 2.4; stroke: #000000" x1="659.1" y1="804.659" x2="627.1" y2="772.659"/>
    <line style="fill: none; fill-opacity:0; stroke-width: 2.4; stroke: #000000" x1="659.1" y1="772.659" x2="627.1" y2="804.659"/>
  </g>
  <g>
    <rect style="fill: #ffffff" x="607.076" y="242.03" width="72.05" height="36"/>
    <rect style="fill: none; fill-opacity:0; stroke-width: 2; stroke: #000000" x="607.076" y="242.03" width="72.05" height="36"/>
    <text font-size="12.8" style="fill: #000000;text-anchor:middle;font-family:sans-serif;font-style:normal;font-weight:normal" x="643.101" y="263.93">
      <tspan x="643.101" y="263.93">Request</tspan>
    </text>
    <line style="fill: none; fill-opacity:0; stroke-width: 1; stroke: #000000" x1="617.076" y1="266.93" x2="669.126" y2="266.93"/>
  </g>
  <g>
    <rect style="fill: #ffffff" x="729.036" y="276.416" width="81.55" height="36"/>
    <rect style="fill: none; fill-opacity:0; stroke-width: 2; stroke: #000000" x="729.036" y="276.416" width="81.55" height="36"/>
    <text font-size="12.8" style="fill: #000000;text-anchor:middle;font-family:sans-serif;font-style:normal;font-weight:normal" x="769.811" y="298.316">
      <tspan x="769.811" y="298.316">Response</tspan>
    </text>
    <line style="fill: none; fill-opacity:0; stroke-width: 1; stroke: #000000" x1="739.036" y1="301.316" x2="800.586" y2="301.316"/>
  </g>
  <g>
    <line style="fill: none; fill-opacity:0; stroke-width: 2; stroke: #000000" x1="589.116" y1="260.083" x2="453.026" y2="260.218"/>
    <polygon style="fill: #000000" points="589.121,265.083 605.116,260.068 589.111,255.083 "/>
    <polygon style="fill: none; fill-opacity:0; stroke-width: 2; stroke: #000000" points="589.121,265.083 605.116,260.068 589.111,255.083 "/>
    <text font-size="12.7998" style="fill: #000000;text-anchor:middle;font-family:sans-serif;font-style:normal;font-weight:normal" x="529.57" y="270.142">&lt;&lt;create&gt;&gt;</text>
  </g>
  <g>
    <line style="fill: none; fill-opacity:0; stroke-width: 2; stroke: #000000" x1="712.036" y1="294.465" x2="453.026" y2="295.218"/>
    <polygon style="fill: #000000" points="712.051,299.465 728.036,294.419 712.022,289.465 "/>
    <polygon style="fill: none; fill-opacity:0; stroke-width: 2; stroke: #000000" points="712.051,299.465 728.036,294.419 712.022,289.465 "/>
    <text font-size="12.7998" style="fill: #000000;text-anchor:middle;font-family:sans-serif;font-style:normal;font-weight:normal" x="591.03" y="304.818">&lt;&lt;create&gt;&gt;</text>
  </g>
  <g>
    <line style="fill: none; fill-opacity:0; stroke-width: 1; stroke-dasharray: 8; stroke: #000000" x1="446.024" y1="485.218" x2="446.024" y2="516.972"/>
    <line style="fill: none; fill-opacity:0; stroke-width: 1; stroke-dasharray: 8; stroke: #000000" x1="446.024" y1="656.972" x2="446.024" y2="975.172"/>
    <rect style="fill: #ffffff" x="439.024" y="516.972" width="14" height="140"/>
    <rect style="fill: none; fill-opacity:0; stroke-width: 2; stroke: #000000" x="439.024" y="516.972" width="14" height="140"/>
  </g>
  <g>
    <rect style="fill: #ffffff" x="996.517" y="407.312" width="85.75" height="36"/>
    <rect style="fill: none; fill-opacity:0; stroke-width: 2; stroke: #000000" x="996.517" y="407.312" width="85.75" height="36"/>
    <text font-size="12.8" style="fill: #000000;text-anchor:middle;font-family:sans-serif;font-style:normal;font-weight:normal" x="1039.39" y="429.212">
      <tspan x="1039.39" y="429.212">AsyncTask</tspan>
    </text>
    <line style="fill: none; fill-opacity:0; stroke-width: 1; stroke: #000000" x1="1006.52" y1="432.212" x2="1072.27" y2="432.212"/>
  </g>
  <g>
    <line style="fill: none; fill-opacity:0; stroke-width: 2; stroke: #000000" x1="979.517" y1="425.382" x2="863.858" y2="425.858"/>
    <polygon style="fill: #000000" points="979.537,430.382 995.517,425.316 979.496,420.382 "/>
    <polygon style="fill: none; fill-opacity:0; stroke-width: 2; stroke: #000000" points="979.537,430.382 995.517,425.316 979.496,420.382 "/>
    <text font-size="12.7998" style="fill: #000000;text-anchor:middle;font-family:sans-serif;font-style:normal;font-weight:normal" x="930.188" y="435.585">&lt;&lt;create&gt;&gt;</text>
  </g>
  <g>
    <line style="fill: none; fill-opacity:0; stroke-width: 1; stroke-dasharray: 8; stroke: #000000" x1="1039.39" y1="443.312" x2="1039.39" y2="476.122"/>
    <line style="fill: none; fill-opacity:0; stroke-width: 1; stroke-dasharray: 8; stroke: #000000" x1="1039.39" y1="516.122" x2="1039.39" y2="633.344"/>
    <rect style="fill: #ffffff" x="1032.39" y="476.122" width="14" height="40"/>
    <rect style="fill: none; fill-opacity:0; stroke-width: 2; stroke: #000000" x="1032.39" y="476.122" width="14" height="40"/>
    <line style="fill: none; fill-opacity:0; stroke-width: 2.4; stroke: #000000" x1="1055.39" y1="649.344" x2="1023.39" y2="617.344"/>
    <line style="fill: none; fill-opacity:0; stroke-width: 2.4; stroke: #000000" x1="1055.39" y1="617.344" x2="1023.39" y2="649.344"/>
  </g>
  <g>
    <line style="fill: none; fill-opacity:0; stroke-width: 2; stroke: #000000" x1="776.81" y1="646.605" x2="845.683" y2="646.605"/>
    <line style="fill: none; fill-opacity:0; stroke-width: 2; stroke: #000000" x1="845.683" y1="646.605" x2="845.683" y2="685.885"/>
    <line style="fill: none; fill-opacity:0; stroke-width: 2; stroke: #000000" x1="793.81" y1="685.885" x2="845.683" y2="685.885"/>
    <polygon style="fill: #000000" points="793.81,680.885 777.81,685.885 793.81,690.885 "/>
    <polygon style="fill: none; fill-opacity:0; stroke-width: 2; stroke: #000000" points="793.81,680.885 777.81,685.885 793.81,690.885 "/>
    <text font-size="12.7998" style="fill: #000000;text-anchor:middle;font-family:sans-serif;font-style:normal;font-weight:normal" x="811.246" y="676.245">close</text>
  </g>
  <g>
    <line style="fill: none; fill-opacity:0; stroke-width: 2; stroke: #000000" x1="619.1" y1="556.241" x2="453.024" y2="556.972"/>
    <polygon style="fill: #000000" points="619.122,561.241 635.1,556.171 619.078,551.241 "/>
    <polygon style="fill: none; fill-opacity:0; stroke-width: 2; stroke: #000000" points="619.122,561.241 635.1,556.171 619.078,551.241 "/>
    <text font-size="12.7998" style="fill: #000000;text-anchor:middle;font-family:sans-serif;font-style:normal;font-weight:normal" x="544.561" y="566.569">&lt;&lt;destroy&gt;&gt;</text>
  </g>
  <g>
    <line style="fill: none; fill-opacity:0; stroke-width: 2; stroke: #000000" x1="745.81" y1="636.625" x2="453.024" y2="636.972"/>
    <polygon style="fill: #000000" points="745.816,641.625 761.81,636.606 745.804,631.625 "/>
    <polygon style="fill: none; fill-opacity:0; stroke-width: 2; stroke: #000000" points="745.816,641.625 761.81,636.606 745.804,631.625 "/>
    <text font-size="12.7998" style="fill: #000000;text-anchor:middle;font-family:sans-serif;font-style:normal;font-weight:normal" x="607.917" y="646.789">&lt;&lt;destroy&gt;&gt;</text>
  </g>
  <g>
    <line style="fill: none; fill-opacity:0; stroke-width: 1; stroke-dasharray: 8; stroke: #000000" x1="769.81" y1="390.677" x2="769.81" y2="636.605"/>
    <line style="fill: none; fill-opacity:0; stroke-width: 1; stroke-dasharray: 8; stroke: #000000" x1="769.81" y1="696.605" x2="769.81" y2="788.011"/>
    <rect style="fill: #ffffff" x="762.81" y="636.605" width="14" height="60"/>
    <rect style="fill: none; fill-opacity:0; stroke-width: 2; stroke: #000000" x="762.81" y="636.605" width="14" height="60"/>
    <line style="fill: none; fill-opacity:0; stroke-width: 2.4; stroke: #000000" x1="785.81" y1="804.011" x2="753.81" y2="772.011"/>
    <line style="fill: none; fill-opacity:0; stroke-width: 2.4; stroke: #000000" x1="785.81" y1="772.011" x2="753.81" y2="804.011"/>
  </g>
  <g>
    <line style="fill: none; fill-opacity:0; stroke-width: 2; stroke: #000000" x1="650.1" y1="566.166" x2="738.968" y2="566.166"/>
    <line style="fill: none; fill-opacity:0; stroke-width: 2; stroke: #000000" x1="738.968" y1="566.166" x2="738.968" y2="605.226"/>
    <line style="fill: none; fill-opacity:0; stroke-width: 2; stroke: #000000" x1="667.1" y1="605.226" x2="738.968" y2="605.226"/>
    <polygon style="fill: #000000" points="667.1,600.226 651.1,605.226 667.1,610.226 "/>
    <polygon style="fill: none; fill-opacity:0; stroke-width: 2; stroke: #000000" points="667.1,600.226 651.1,605.226 667.1,610.226 "/>
    <text font-size="12.7998" style="fill: #000000;text-anchor:middle;font-family:sans-serif;font-style:normal;font-weight:normal" x="694.533" y="595.696">close</text>
  </g>
  <g>
    <line style="fill: none; fill-opacity:0; stroke-width: 2; stroke: #000000" x1="745.81" y1="350.653" x2="453.026" y2="350.218"/>
    <polygon style="fill: #000000" points="745.803,355.653 761.81,350.677 745.817,345.653 "/>
    <polygon style="fill: none; fill-opacity:0; stroke-width: 2; stroke: #000000" points="745.803,355.653 761.81,350.677 745.817,345.653 "/>
    <text font-size="12.7998" style="fill: #000000;text-anchor:middle;font-family:sans-serif;font-style:normal;font-weight:normal" x="607.918" y="360.448">end.connect_after</text>
  </g>
  <g>
    <line style="fill: none; fill-opacity:0; stroke-width: 1; stroke-dasharray: 8; stroke: #000000" x1="769.81" y1="312.416" x2="769.81" y2="350.677"/>
    <line style="fill: none; fill-opacity:0; stroke-width: 1; stroke-dasharray: 8; stroke: #000000" x1="769.81" y1="390.677" x2="769.81" y2="476.372"/>
    <rect style="fill: #ffffff" x="762.81" y="350.677" width="14" height="40"/>
    <rect style="fill: none; fill-opacity:0; stroke-width: 2; stroke: #000000" x="762.81" y="350.677" width="14" height="40"/>
  </g>
  <g>
    <line style="fill: none; fill-opacity:0; stroke-width: 2; stroke-dasharray: 8; stroke: #000000" x1="470.026" y1="390.243" x2="762.81" y2="390.678"/>
    <polygon style="fill: #000000" points="470.033,385.243 454.026,390.219 470.019,395.243 "/>
    <polygon style="fill: none; fill-opacity:0; stroke-width: 2; stroke: #000000" points="470.033,385.243 454.026,390.219 470.019,395.243 "/>
  </g>
  <g>
    <line style="fill: none; fill-opacity:0; stroke-width: 2; stroke: #000000" x1="1025.69" y1="476.111" x2="863.858" y2="475.858"/>
    <polyline style="fill: none; fill-opacity:0; stroke-width: 2; stroke: #000000" points="1013.03,481.091 1029.04,476.116 1013.05,471.091 "/>
    <text font-size="12.7998" style="fill: #000000;text-anchor:middle;font-family:sans-serif;font-style:normal;font-weight:normal" x="948.126" y="485.989">invoke</text>
  </g>
</svg>
