<?xml version="1.0" encoding="UTF-8" standalone="no"?>
<!DOCTYPE svg PUBLIC "-//W3C//DTD SVG 1.0//EN" "http://www.w3.org/TR/2001/PR-SVG-20010719/DTD/svg10.dtd">
<svg width="60cm" height="30cm" viewBox="200 206 1198 581" xmlns="http://www.w3.org/2000/svg" xmlns:xlink="http://www.w3.org/1999/xlink">
  <g>
    <line style="fill: none; fill-opacity:0; stroke-width: 1; stroke-dasharray: 8; stroke: #000000" x1="446.026" y1="244.208" x2="446.026" y2="321.806"/>
    <line style="fill: none; fill-opacity:0; stroke-width: 1; stroke-dasharray: 8; stroke: #000000" x1="446.026" y1="621.806" x2="446.026" y2="756.938"/>
    <rect style="fill: #ffffff" x="439.026" y="321.806" width="14" height="300"/>
    <rect style="fill: none; fill-opacity:0; stroke-width: 2; stroke: #000000" x="439.026" y="321.806" width="14" height="300"/>
  </g>
  <g>
    <rect style="fill: #ffffff" x="415" y="208.208" width="62.05" height="36"/>
    <rect style="fill: none; fill-opacity:0; stroke-width: 2; stroke: #000000" x="415" y="208.208" width="62.05" height="36"/>
    <text font-size="12.8" style="fill: #000000;text-anchor:middle;font-family:sans-serif;font-style:normal;font-weight:normal" x="446.025" y="230.108">
      <tspan x="446.025" y="230.108">Server</tspan>
    </text>
    <line style="fill: none; fill-opacity:0; stroke-width: 1; stroke: #000000" x1="425" y1="233.108" x2="467.05" y2="233.108"/>
  </g>
  <g>
    <line style="fill: none; fill-opacity:0; stroke-width: 1; stroke-dasharray: 8; stroke: #000000" x1="701.204" y1="243.368" x2="701.204" y2="511.66"/>
    <line style="fill: none; fill-opacity:0; stroke-width: 1; stroke-dasharray: 8; stroke: #000000" x1="701.204" y1="611.66" x2="701.204" y2="769.972"/>
    <rect style="fill: #ffffff" x="694.204" y="511.66" width="14" height="100"/>
    <rect style="fill: none; fill-opacity:0; stroke-width: 2; stroke: #000000" x="694.204" y="511.66" width="14" height="100"/>
  </g>
  <g>
    <rect style="fill: #ffffff" x="628.254" y="207.368" width="145.9" height="36"/>
    <rect style="fill: none; fill-opacity:0; stroke-width: 2; stroke: #000000" x="628.254" y="207.368" width="145.9" height="36"/>
    <text font-size="12.8" style="fill: #000000;text-anchor:middle;font-family:sans-serif;font-style:normal;font-weight:normal" x="701.204" y="229.268">
      <tspan x="701.204" y="229.268">ApplicationCallback</tspan>
    </text>
    <line style="fill: none; fill-opacity:0; stroke-width: 1; stroke: #000000" x1="638.254" y1="232.268" x2="764.154" y2="232.268"/>
  </g>
  <g>
    <line style="fill: none; fill-opacity:0; stroke-width: 2; stroke: #000000" x1="422.026" y1="321.782" x2="201.434" y2="321.474"/>
    <polygon style="fill: #000000" points="422.019,326.782 438.026,321.805 422.033,316.782 "/>
    <polygon style="fill: none; fill-opacity:0; stroke-width: 2; stroke: #000000" points="422.019,326.782 438.026,321.805 422.033,316.782 "/>
    <text font-size="12.7998" style="fill: #000000;text-anchor:middle;font-family:sans-serif;font-style:normal;font-weight:normal" x="320.23" y="331.64">user agent request</text>
  </g>
  <g>
    <line style="fill: none; fill-opacity:0; stroke-width: 2; stroke: #000000" x1="677.204" y1="511.67" x2="453.026" y2="511.806"/>
    <polygon style="fill: #000000" points="677.207,516.67 693.204,511.661 677.201,506.67 "/>
    <polygon style="fill: none; fill-opacity:0; stroke-width: 2; stroke: #000000" points="677.207,516.67 693.204,511.661 677.201,506.67 "/>
    <text font-size="12.7998" style="fill: #000000;text-anchor:middle;font-family:sans-serif;font-style:normal;font-weight:normal" x="573.614" y="521.732">handle (request, response)</text>
  </g>
  <g>
    <rect style="fill: #ffffff" x="1183.06" y="384.738" width="72.05" height="36"/>
    <rect style="fill: none; fill-opacity:0; stroke-width: 2; stroke: #000000" x="1183.06" y="384.738" width="72.05" height="36"/>
    <text font-size="12.8" style="fill: #000000;text-anchor:middle;font-family:sans-serif;font-style:normal;font-weight:normal" x="1219.08" y="406.638">
      <tspan x="1219.08" y="406.638">Request</tspan>
    </text>
    <line style="fill: none; fill-opacity:0; stroke-width: 1; stroke: #000000" x1="1193.06" y1="409.638" x2="1245.11" y2="409.638"/>
  </g>
  <g>
    <rect style="fill: #ffffff" x="1285.99" y="425.22" width="81.55" height="36"/>
    <rect style="fill: none; fill-opacity:0; stroke-width: 2; stroke: #000000" x="1285.99" y="425.22" width="81.55" height="36"/>
    <text font-size="12.8" style="fill: #000000;text-anchor:middle;font-family:sans-serif;font-style:normal;font-weight:normal" x="1326.77" y="447.12">
      <tspan x="1326.77" y="447.12">Response</tspan>
    </text>
    <line style="fill: none; fill-opacity:0; stroke-width: 1; stroke: #000000" x1="1295.99" y1="450.12" x2="1357.54" y2="450.12"/>
  </g>
  <g>
    <line style="fill: none; fill-opacity:0; stroke-width: 2; stroke: #000000" x1="1031.13" y1="352.443" x2="453.026" y2="351.806"/>
    <polygon style="fill: #000000" points="1031.13,357.443 1047.13,352.461 1031.14,347.443 "/>
    <polygon style="fill: none; fill-opacity:0; stroke-width: 2; stroke: #000000" points="1031.13,357.443 1047.13,352.461 1031.14,347.443 "/>
    <text font-size="12.7998" style="fill: #000000;text-anchor:middle;font-family:sans-serif;font-style:normal;font-weight:normal" x="750.578" y="362.134">&lt;&lt;create&gt;&gt;</text>
  </g>
  <g>
    <rect style="fill: #ffffff" x="891.59" y="512.424" width="85.75" height="36"/>
    <rect style="fill: none; fill-opacity:0; stroke-width: 2; stroke: #000000" x="891.59" y="512.424" width="85.75" height="36"/>
    <text font-size="12.8" style="fill: #000000;text-anchor:middle;font-family:sans-serif;font-style:normal;font-weight:normal" x="934.465" y="534.324">
      <tspan x="934.465" y="534.324">AsyncTask</tspan>
    </text>
    <line style="fill: none; fill-opacity:0; stroke-width: 1; stroke: #000000" x1="901.59" y1="537.324" x2="967.34" y2="537.324"/>
  </g>
  <g>
    <line style="fill: none; fill-opacity:0; stroke-width: 2; stroke: #000000" x1="874.59" y1="530.539" x2="708.204" y2="531.66"/>
    <polygon style="fill: #000000" points="874.624,535.538 890.59,530.431 874.557,525.539 "/>
    <polygon style="fill: none; fill-opacity:0; stroke-width: 2; stroke: #000000" points="874.624,535.538 890.59,530.431 874.557,525.539 "/>
    <text font-size="12.7998" style="fill: #000000;text-anchor:middle;font-family:sans-serif;font-style:normal;font-weight:normal" x="799.898" y="541.04">&lt;&lt;create&gt;&gt;</text>
  </g>
  <g>
    <line style="fill: none; fill-opacity:0; stroke-width: 1; stroke-dasharray: 8; stroke: #000000" x1="934.466" y1="548.424" x2="934.466" y2="591.985"/>
    <line style="fill: none; fill-opacity:0; stroke-width: 1; stroke-dasharray: 8; stroke: #000000" x1="934.466" y1="691.985" x2="934.466" y2="769.972"/>
    <rect style="fill: #ffffff" x="927.466" y="591.985" width="14" height="100"/>
    <rect style="fill: none; fill-opacity:0; stroke-width: 2; stroke: #000000" x="927.466" y="591.985" width="14" height="100"/>
    <line style="fill: none; fill-opacity:0; stroke-width: 2.4; stroke: #000000" x1="950.466" y1="785.972" x2="918.466" y2="753.972"/>
    <line style="fill: none; fill-opacity:0; stroke-width: 2.4; stroke: #000000" x1="950.466" y1="753.972" x2="918.466" y2="785.972"/>
  </g>
  <g>
    <line style="fill: none; fill-opacity:0; stroke-width: 2; stroke: #000000" x1="920.761" y1="591.974" x2="708.204" y2="591.66"/>
    <polyline style="fill: none; fill-opacity:0; stroke-width: 2; stroke: #000000" points="908.106,596.955 924.113,591.979 908.121,586.955 "/>
    <text font-size="12.7998" style="fill: #000000;text-anchor:middle;font-family:sans-serif;font-style:normal;font-weight:normal" x="817.834" y="601.82">invoke (response)</text>
  </g>
  <g>
    <rect style="fill: #ffffff" x="1048.13" y="334.462" width="92.45" height="36"/>
    <rect style="fill: none; fill-opacity:0; stroke-width: 2; stroke: #000000" x="1048.13" y="334.462" width="92.45" height="36"/>
    <text font-size="12.8" style="fill: #000000;text-anchor:middle;font-family:sans-serif;font-style:normal;font-weight:normal" x="1094.36" y="356.362">
      <tspan x="1094.36" y="356.362">Connection</tspan>
    </text>
    <line style="fill: none; fill-opacity:0; stroke-width: 1; stroke: #000000" x1="1058.13" y1="359.362" x2="1130.58" y2="359.362"/>
  </g>
  <g>
    <line style="fill: none; fill-opacity:0; stroke-width: 2; stroke: #000000" x1="1166.06" y1="402.716" x2="453.026" y2="401.806"/>
    <polygon style="fill: #000000" points="1166.05,407.716 1182.06,402.737 1166.06,397.716 "/>
    <polygon style="fill: none; fill-opacity:0; stroke-width: 2; stroke: #000000" points="1166.05,407.716 1182.06,402.737 1166.06,397.716 "/>
    <text font-size="12.7998" style="fill: #000000;text-anchor:middle;font-family:sans-serif;font-style:normal;font-weight:normal" x="818.04" y="412.272">&lt;&lt;create&gt;&gt;</text>
  </g>
  <g>
    <line style="fill: none; fill-opacity:0; stroke-width: 2; stroke: #000000" x1="1268.99" y1="443.191" x2="453.026" y2="441.806"/>
    <polygon style="fill: #000000" points="1268.99,448.191 1284.99,443.218 1269,438.191 "/>
    <polygon style="fill: none; fill-opacity:0; stroke-width: 2; stroke: #000000" points="1268.99,448.191 1284.99,443.218 1269,438.191 "/>
    <text font-size="12.7998" style="fill: #000000;text-anchor:middle;font-family:sans-serif;font-style:normal;font-weight:normal" x="869.51" y="452.514">&lt;&lt;create&gt;&gt;</text>
  </g>
  <g>
    <line style="fill: none; fill-opacity:0; stroke-width: 1; stroke-dasharray: 8; stroke: #000000" x1="1219.08" y1="420.738" x2="1219.08" y2="670.586"/>
    <line style="fill: none; fill-opacity:0; stroke-width: 1; stroke-dasharray: 8; stroke: #000000" x1="1219.08" y1="710.586" x2="1219.08" y2="765.71"/>
    <rect style="fill: #ffffff" x="1212.08" y="670.586" width="14" height="40"/>
    <rect style="fill: none; fill-opacity:0; stroke-width: 2; stroke: #000000" x="1212.08" y="670.586" width="14" height="40"/>
    <line style="fill: none; fill-opacity:0; stroke-width: 2.4; stroke: #000000" x1="1235.08" y1="781.71" x2="1203.08" y2="749.71"/>
    <line style="fill: none; fill-opacity:0; stroke-width: 2.4; stroke: #000000" x1="1235.08" y1="749.71" x2="1203.08" y2="781.71"/>
  </g>
  <g>
    <line style="fill: none; fill-opacity:0; stroke-width: 1; stroke-dasharray: 8; stroke: #000000" x1="1326.77" y1="461.22" x2="1326.77" y2="632.816"/>
    <line style="fill: none; fill-opacity:0; stroke-width: 1; stroke-dasharray: 8; stroke: #000000" x1="1326.77" y1="672.816" x2="1326.77" y2="761.626"/>
    <rect style="fill: #ffffff" x="1319.77" y="632.816" width="14" height="40"/>
    <rect style="fill: none; fill-opacity:0; stroke-width: 2; stroke: #000000" x="1319.77" y="632.816" width="14" height="40"/>
    <line style="fill: none; fill-opacity:0; stroke-width: 2.4; stroke: #000000" x1="1342.77" y1="777.626" x2="1310.77" y2="745.626"/>
    <line style="fill: none; fill-opacity:0; stroke-width: 2.4; stroke: #000000" x1="1342.77" y1="745.626" x2="1310.77" y2="777.626"/>
  </g>
  <g>
    <line style="fill: none; fill-opacity:0; stroke-width: 2; stroke: #000000" x1="1302.77" y1="652.779" x2="941.466" y2="651.984"/>
    <polygon style="fill: #000000" points="1302.76,657.779 1318.77,652.814 1302.78,647.779 "/>
    <polygon style="fill: none; fill-opacity:0; stroke-width: 2; stroke: #000000" points="1302.76,657.779 1318.77,652.814 1302.78,647.779 "/>
    <text font-size="12.7998" style="fill: #000000;text-anchor:middle;font-family:sans-serif;font-style:normal;font-weight:normal" x="1130.62" y="662.402">&lt;&lt;destroy&gt;&gt;</text>
  </g>
  <g>
    <line style="fill: none; fill-opacity:0; stroke-width: 1; stroke-dasharray: 8; stroke: #000000" x1="1094.36" y1="370.462" x2="1094.36" y2="689.98"/>
    <line style="fill: none; fill-opacity:0; stroke-width: 1; stroke-dasharray: 8; stroke: #000000" x1="1094.36" y1="729.98" x2="1094.36" y2="767.15"/>
    <rect style="fill: #ffffff" x="1087.36" y="689.98" width="14" height="40"/>
    <rect style="fill: none; fill-opacity:0; stroke-width: 2; stroke: #000000" x="1087.36" y="689.98" width="14" height="40"/>
    <line style="fill: none; fill-opacity:0; stroke-width: 2.4; stroke: #000000" x1="1110.36" y1="783.15" x2="1078.36" y2="751.15"/>
    <line style="fill: none; fill-opacity:0; stroke-width: 2.4; stroke: #000000" x1="1110.36" y1="751.15" x2="1078.36" y2="783.15"/>
  </g>
  <g>
    <line style="fill: none; fill-opacity:0; stroke-width: 2; stroke: #000000" x1="1070.36" y1="690.213" x2="941.466" y2="691.984"/>
    <polygon style="fill: #000000" points="1070.43,695.213 1086.36,689.994 1070.29,685.214 "/>
    <polygon style="fill: none; fill-opacity:0; stroke-width: 2; stroke: #000000" points="1070.43,695.213 1086.36,689.994 1070.29,685.214 "/>
    <text font-size="12.7998" style="fill: #000000;text-anchor:middle;font-family:sans-serif;font-style:normal;font-weight:normal" x="1014.41" y="700.982">&lt;&lt;destroy&gt;&gt;</text>
  </g>
  <g>
    <line style="fill: none; fill-opacity:0; stroke-width: 2; stroke: #000000" x1="1195.08" y1="670.674" x2="941.466" y2="671.984"/>
    <polygon style="fill: #000000" points="1195.11,675.674 1211.08,670.591 1195.05,665.674 "/>
    <polygon style="fill: none; fill-opacity:0; stroke-width: 2; stroke: #000000" points="1195.11,675.674 1211.08,670.591 1195.05,665.674 "/>
    <text font-size="12.7998" style="fill: #000000;text-anchor:middle;font-family:sans-serif;font-style:normal;font-weight:normal" x="1076.77" y="681.286">&lt;&lt;destroy&gt;&gt;</text>
  </g>
  <g>
    <line style="fill: none; fill-opacity:0; stroke-width: 2; stroke: #000000" x1="1302.77" y1="632.779" x2="941.466" y2="631.984"/>
    <polygon style="fill: #000000" points="1302.76,637.779 1318.77,632.814 1302.78,627.779 "/>
    <polygon style="fill: none; fill-opacity:0; stroke-width: 2; stroke: #000000" points="1302.76,637.779 1318.77,632.814 1302.78,627.779 "/>
    <text font-size="12.7998" style="fill: #000000;text-anchor:middle;font-family:sans-serif;font-style:normal;font-weight:normal" x="1130.62" y="642.4">body.write_all ("Hello world", null)</text>
  </g>
  <g>
    <line style="fill: none; fill-opacity:0; stroke-width: 2; stroke: #000000" x1="1333.77" y1="662.816" x2="1391.86" y2="662.816"/>
    <line style="fill: none; fill-opacity:0; stroke-width: 2; stroke: #000000" x1="1391.86" y1="662.816" x2="1391.86" y2="710.396"/>
    <line style="fill: none; fill-opacity:0; stroke-width: 2; stroke: #000000" x1="1350.77" y1="710.396" x2="1391.86" y2="710.396"/>
    <polygon style="fill: #000000" points="1350.77,705.396 1334.77,710.396 1350.77,715.396 "/>
    <polygon style="fill: none; fill-opacity:0; stroke-width: 2; stroke: #000000" points="1350.77,705.396 1334.77,710.396 1350.77,715.396 "/>
    <text font-size="12.7998" style="fill: #000000;text-anchor:middle;font-family:sans-serif;font-style:normal;font-weight:normal" x="1362.81" y="696.606">body.close</text>
  </g>
  <g>
    <line style="fill: none; fill-opacity:0; stroke-width: 2; stroke: #000000" x1="1226.08" y1="690.586" x2="1309.18" y2="690.586"/>
    <line style="fill: none; fill-opacity:0; stroke-width: 2; stroke: #000000" x1="1309.18" y1="690.586" x2="1309.18" y2="742.042"/>
    <line style="fill: none; fill-opacity:0; stroke-width: 2; stroke: #000000" x1="1243.08" y1="742.042" x2="1309.18" y2="742.042"/>
    <polygon style="fill: #000000" points="1243.08,737.042 1227.08,742.042 1243.08,747.042 "/>
    <polygon style="fill: none; fill-opacity:0; stroke-width: 2; stroke: #000000" points="1243.08,737.042 1227.08,742.042 1243.08,747.042 "/>
    <text font-size="12.7998" style="fill: #000000;text-anchor:middle;font-family:sans-serif;font-style:normal;font-weight:normal" x="1267.63" y="726.314">body.close</text>
  </g>
  <g>
    <line style="fill: none; fill-opacity:0; stroke-width: 2; stroke: #000000" x1="1101.36" y1="709.98" x2="1169.81" y2="709.98"/>
    <line style="fill: none; fill-opacity:0; stroke-width: 2; stroke: #000000" x1="1169.81" y1="709.98" x2="1169.81" y2="764.054"/>
    <line style="fill: none; fill-opacity:0; stroke-width: 2; stroke: #000000" x1="1118.36" y1="764.054" x2="1169.81" y2="764.054"/>
    <polygon style="fill: #000000" points="1118.36,759.054 1102.36,764.054 1118.36,769.054 "/>
    <polygon style="fill: none; fill-opacity:0; stroke-width: 2; stroke: #000000" points="1118.36,759.054 1102.36,764.054 1118.36,769.054 "/>
    <text font-size="12.7998" style="fill: #000000;text-anchor:middle;font-family:sans-serif;font-style:normal;font-weight:normal" x="1135.58" y="747.018">close</text>
  </g>
  <g>
    <line style="fill: none; fill-opacity:0; stroke-width: 2; stroke-dasharray: 8; stroke: #000000" x1="470.026" y1="611.796" x2="701.204" y2="611.66"/>
    <polygon style="fill: #000000" points="470.023,606.796 454.026,611.805 470.029,616.796 "/>
    <polygon style="fill: none; fill-opacity:0; stroke-width: 2; stroke: #000000" points="470.023,606.796 454.026,611.805 470.029,616.796 "/>
  </g>
</svg>
